<mxfile host="app.diagrams.net" modified="2024-03-18T07:36:51.025Z" agent="Mozilla/5.0 (Windows NT 10.0; Win64; x64) AppleWebKit/537.36 (KHTML, like Gecko) Chrome/122.0.0.0 Safari/537.36" version="24.0.7" etag="uJSk6Mk0n4lXc0E4I0GB" type="github">
  <diagram name="第 1 页" id="vWSbrCHWz1pdgLscwr1I">
    <mxGraphModel>
      <root>
        <mxCell id="0" />
        <mxCell id="1" parent="0" />
      </root>
    </mxGraphModel>
  </diagram>
</mxfile>
